<svg xmlns="http://www.w3.org/2000/svg" width="178" height="55" viewBox="0 0 178 55">
    <defs>
        <linearGradient id="a" x1="0%" y1="0%" y2="100%">
            <stop offset="0%" stop-color="#2DAB9D"/>
            <stop offset="100%" stop-color="#0092B8"/>
        </linearGradient>
        <linearGradient id="b" x1="-18.61%" x2="118.61%" y1="67.106%" y2="32.894%">
            <stop offset="0%" stop-color="#2DAB9D"/>
            <stop offset="100%" stop-color="#0092B8"/>
        </linearGradient>
    </defs>
    <g fill="none" fill-rule="nonzero">
        <g transform="rotate(-19 84.367 -148.334)">
            <path fill="url(#a)" d="M19.907 14.576s-8.875-9.586-6.504-11.72C15.773.724 24.288-1.11 26.789.805c2.502 1.914 5.612 12.054 5.612 12.054-1.529-.79-2.756-2.109-3.48-3.738-1.054-2.688-2.678-6.109-3.317-6.402-.978-.44-8.514 1.181-8.93 1.735-.415.554 2.194 5.163 4.388 6.418 2.194 1.254 9.746 3.306 9.7 5.05-.031 1.172-10.855-1.345-10.855-1.345zM11 14s1.039 1.412 6.124 3.746c7.357 3.38 15.613 3.763 18.606 2.492 2.992-1.27 1.015-2.035 1.015-2.035S27.435 21.335 11 14zM33.147 11.417c.936-1.271 3.745-4.847 5.695-4.374 2.34.562 7.8 7.216 8.58 8.682.718 1.287.226 2.664-1.342 3.259-1.318.49-2.692.8-4.087.92-.52.14-1.074.02-1.498-.326a.824.824 0 0 1-.327-.612.833.833 0 0 1 .25-.65 8.33 8.33 0 0 0 2.16-2.574c.445-1.312-1.264-3.609-2.442-4.586-.702-.586-1.443.595-1.88.815l-3.588.839a1.254 1.254 0 0 1-1.52-.44.844.844 0 0 1 0-.953z"/>
            <ellipse cx="5.164" cy="7.208" fill="url(#b)" rx="1.164" ry="1.208"/>
            <ellipse cx="8.164" cy="7.208" fill="url(#b)" rx="1.164" ry="1.208"/>
            <ellipse cx="8.164" cy="10.208" fill="url(#b)" rx="1.164" ry="1.208"/>
            <ellipse cx="4.164" cy="11.208" fill="url(#b)" rx="1.164" ry="1.208"/>
            <ellipse cx="12.164" cy="10.208" fill="url(#b)" rx="1.164" ry="1.208"/>
            <ellipse cx="8.164" cy="14.208" fill="url(#b)" rx="1.164" ry="1.208"/>
            <ellipse cx="1.164" cy="5.208" fill="url(#b)" rx="1.164" ry="1.208"/>
            <ellipse cx="1.164" cy="8.208" fill="url(#b)" rx="1.164" ry="1.208"/>
        </g>
        <g transform="rotate(161 65.408 30.28)">
            <path fill="url(#a)" d="M19.907 14.576s-8.875-9.586-6.504-11.72C15.773.724 24.288-1.11 26.789.805c2.502 1.914 5.612 12.054 5.612 12.054-1.529-.79-2.756-2.109-3.48-3.738-1.054-2.688-2.678-6.109-3.317-6.402-.978-.44-8.514 1.181-8.93 1.735-.415.554 2.194 5.163 4.388 6.418 2.194 1.254 9.746 3.306 9.7 5.05-.031 1.172-10.855-1.345-10.855-1.345zM11 14s1.039 1.412 6.124 3.746c7.357 3.38 15.613 3.763 18.606 2.492 2.992-1.27 1.015-2.035 1.015-2.035S27.435 21.335 11 14zM33.147 11.417c.936-1.271 3.745-4.847 5.695-4.374 2.34.562 7.8 7.216 8.58 8.682.718 1.287.226 2.664-1.342 3.259-1.318.49-2.692.8-4.087.92-.52.14-1.074.02-1.498-.326a.824.824 0 0 1-.327-.612.833.833 0 0 1 .25-.65 8.33 8.33 0 0 0 2.16-2.574c.445-1.312-1.264-3.609-2.442-4.586-.702-.586-1.443.595-1.88.815l-3.588.839a1.254 1.254 0 0 1-1.52-.44.844.844 0 0 1 0-.953z"/>
            <ellipse cx="5.164" cy="7.208" fill="url(#b)" rx="1.164" ry="1.208"/>
            <ellipse cx="8.164" cy="7.208" fill="url(#b)" rx="1.164" ry="1.208"/>
            <ellipse cx="8.164" cy="10.208" fill="url(#b)" rx="1.164" ry="1.208"/>
            <ellipse cx="4.164" cy="11.208" fill="url(#b)" rx="1.164" ry="1.208"/>
            <ellipse cx="12.164" cy="10.208" fill="url(#b)" rx="1.164" ry="1.208"/>
            <ellipse cx="8.164" cy="14.208" fill="url(#b)" rx="1.164" ry="1.208"/>
            <ellipse cx="1.164" cy="5.208" fill="url(#b)" rx="1.164" ry="1.208"/>
            <ellipse cx="1.164" cy="8.208" fill="url(#b)" rx="1.164" ry="1.208"/>
        </g>
        <path fill="url(#a)" d="M81.898 36.473c.141.056.13.373 0 .457-1.7 1.026-4.779 1.866-6.218 1.54-7.506-1.866-5.845-1.139-15.353 1.473C45.517 44.018 33 35 33 35s14.388 8.635 33.202 1.259c5.665-2.229 15.032 0 15.696.214z"/>
        <path fill="url(#a)" d="M156.898 19.473c.141.056.13.373 0 .457-1.7 1.026-4.779 1.866-6.218 1.54-7.506-1.866-5.845-1.139-15.353 1.473C120.517 27.018 108 18 108 18s14.388 8.635 33.202 1.259c5.665-2.229 15.032 0 15.696.214z" transform="matrix(-1 0 0 1 265 0)"/>
    </g>
</svg>
