<svg xmlns="http://www.w3.org/2000/svg" width="29" height="28" viewBox="0 0 29 28">
    <path fill="none" fill-rule="evenodd" stroke="#FFF" stroke-width="2" d="M14.513 26.648a26.432 26.432 0 0 1 2.146-2.838c.867-.999 1.598-1.784 2.192-2.355.56-.538 1.367-1.29 2.484-2.318.358-.33 1.38-1.245 1.534-1.389.35-.33.806-.784 1.356-1.352.558-.574.98-1.048 1.267-1.423.289-.374.611-.847 1.013-1.48.687-1.085 1.015-1.941 1.299-3.321A9.58 9.58 0 0 0 28 8.229c0-1.929-.773-3.82-2.058-5.13C24.653 1.788 22.827 1 20.979 1c-1.115 0-2.16.26-3.179.791a6.886 6.886 0 0 0-2.483 2.17L14.5 5.118l-.817-1.157a6.878 6.878 0 0 0-2.485-2.17A6.732 6.732 0 0 0 8.021 1c-1.85 0-3.674.786-4.963 2.1C1.773 4.41 1 6.3 1 8.23c0 1.297.25 2.67.655 3.833.174.5.437 1.036.779 1.572.36.567.705 1.071 1.02 1.493.314.42.735.902 1.25 1.418a57.655 57.655 0 0 0 1.41 1.376c.362.34.906.836 1.586 1.444a106.416 106.416 0 0 1 1.467 1.337l.317.294c.326.3.675.64 1.613 1.564a26.027 26.027 0 0 1 3.416 4.087z"/>
</svg>
