<svg xmlns="http://www.w3.org/2000/svg" width="16" height="15" viewBox="0 0 16 15">
    <path fill="none" fill-rule="evenodd" stroke="#189ABC" stroke-width="2" d="M8.002 13.498c.27-.366.556-.718.86-1.058.487-.544.9-.975 1.239-1.29.311-.292.759-.697 1.377-1.25.201-.18.764-.668.843-.74.187-.171.434-.41.733-.71.297-.297.518-.538.664-.723.15-.188.32-.43.534-.758.346-.53.505-.935.65-1.62A4.51 4.51 0 0 0 15 4.41c0-.906-.376-1.798-.997-2.413A3.507 3.507 0 0 0 11.574 1c-.546 0-1.056.123-1.556.377-.495.25-.892.588-1.21 1.024L8 3.513l-.809-1.112a3.311 3.311 0 0 0-1.21-1.024A3.368 3.368 0 0 0 4.427 1c-.905 0-1.801.375-2.43.997A3.44 3.44 0 0 0 1 4.409c0 .637.128 1.32.333 1.892a3.6 3.6 0 0 0 .381.744c.192.294.376.554.541.77.16.207.378.45.647.711a30.966 30.966 0 0 0 1.634 1.493c.363.315.514.45.99.878.185.166.378.349.9.848a14.583 14.583 0 0 1 1.576 1.753z"/>
</svg>
