<?xml version="1.0" encoding="UTF-8"?>
<svg width="146px" height="83px" viewBox="0 0 146 83" version="1.1" xmlns="http://www.w3.org/2000/svg" xmlns:xlink="http://www.w3.org/1999/xlink">
    <!-- Generator: sketchtool 50.2 (55047) - http://www.bohemiancoding.com/sketch -->
    <title>F3D49B52-5BB3-4003-AB3F-1B4DF18236E5</title>
    <desc>Created with sketchtool.</desc>
    <defs>
        <path d="M111.24294,36.4145929 L120.133119,36.4145929 C120.589511,36.4145929 133.824881,36.3481214 133.824881,36.3481214 C133.867815,36.3481214 131.480716,34.62255 130.940483,33.7940071 C129.25048,33.7251857 126.90733,34.8756786 126.90733,34.8756786 L122.986753,35.0599857 C122.986753,35.0599857 119.738256,34.0233 119.614185,33.8964 C117.234861,31.4446786 116.444795,31.1831571 114.06581,28.7314357 C113.687511,28.5159071 113.177366,28.6454929 112.703057,28.5326929 C111.74869,28.3047429 110.601287,28.2335714 109.653006,28.0026 C109.206418,27.8934929 108.690864,28.0180429 108.355162,27.8035214 C107.752386,27.7263071 107.545151,27.0807286 107.252045,26.6768643 C106.652989,25.8496643 105.979219,25.0718143 105.370358,24.2251429 C104.911938,23.58695 104.476506,22.7278571 103.800707,22.3001571 C102.753372,21.6377929 102.779403,21.55185 101.739168,20.8847857 C101.375068,20.6518 100.119145,19.9706357 99.7790483,19.7114643 C99.3824943,19.4106643 96.8490114,18.3998286 96.5680767,18.3998286 C95.9264233,18.2114929 94.541358,17.2009929 93.9497386,16.9351071 C92.2516222,16.1723643 90.8993494,15.2555286 89.2340256,14.5340786 C88.4300994,14.1859429 87.7468636,13.9818286 86.6657216,13.4295786 C86.0947244,13.1385143 85.453071,13.04955 85.2935028,12.8863929 C85.1339347,12.7229 83.9811222,12.6456857 83.891196,12.7601643 C83.385446,13.4285714 82.0642756,14.2749071 81.3600795,14.8144 C80.8820511,15.1806643 80.4905682,15.7815929 80.127821,16.2724071 C79.7816392,16.6255786 79.4354574,16.9794214 79.0896136,17.3325929 C78.5727074,18.03155 76.8830426,19.7181786 76.8830426,19.7181786 L77.2001506,20.4194857 C77.2001506,20.4194857 78.8776449,21.73985 79.2190938,21.9718286 C79.9134858,22.4428357 80.5923267,23.2388143 80.906392,24.0925357 C81.526071,25.7778214 81.3458807,27.9881643 81.7502102,29.8577571 C81.7931449,30.5204571 81.8796903,31.8461929 81.8796903,31.8461929 L82.7235085,33.3038643 L82.7235085,37.4130071 L82.7880795,38.8042071 L85.0433324,40.2605357 L88.6934545,40.7204643 C88.6934545,40.7204643 84.1278438,43.8426071 84.6075625,44.2646 L103.699963,44.2646 C106.338247,44.2646 112.638148,42.6484714 112.638148,42.6484714 L112.898122,42.4493929 C112.898122,42.4493929 112.409276,41.86995 112.118875,41.5876143 C111.372082,40.8618 108.976193,37.9666 108.258136,37.2099 C107.788222,37.2058714 110.733134,36.4145929 111.24294,36.4145929 Z M68.3133523,36.6781286 C68.0503352,36.8721714 67.6199744,36.8688143 67.1250426,36.8631071 C66.3444432,36.0224786 65.0063693,35.8818143 64.9188097,34.2771 C65.3373381,34.0850714 65.9593835,33.8638357 66.2761534,33.5381929 C67.1439744,33.9037857 68.0290369,33.7221643 68.9921932,33.9074786 C69.0936136,34.2264071 68.8238352,35.8925571 68.3133523,36.6781286 Z M64.7115739,39.5226357 C64.3873665,39.1244786 64.3045398,39.2389571 64.0908807,38.63635 C63.8410483,38.1683643 63.9904744,38.1415071 64.0908807,37.5281571 C64.4532898,37.3881643 64.2916932,37.4851857 64.5046761,37.30625 C64.8498437,37.3804429 65.1943352,37.4543 65.5395028,37.5281571 C65.7700653,38.07705 65.8890653,38.2445714 65.9532983,39.0794929 C65.4813551,39.3510857 65.4874403,39.4424 64.7115739,39.5226357 Z M74.222446,15.8745857 C74.7251534,16.3281357 75.54125,16.6245714 75.9097443,17.1999857 C76.3127216,17.82945 76.5703295,18.9839714 76.8830426,19.7181786 C77.4493068,21.0476071 78.3434972,22.5982714 78.699821,24.0260643 L78.699821,38.6058 C79.0345085,39.5901143 80.207267,39.9073643 79.9327557,41.3888714 C79.3218665,41.7786357 78.655196,42.441 77.9215881,42.6484714 L77.0128608,42.6484714 C76.1717472,42.6484714 75.149429,42.5695786 74.4171733,42.7142714 L74.4171733,42.8472143 L74.4824205,42.8472143 C74.787696,43.2671929 76.5260426,44.5398857 76.5260426,44.5398857 L73.6386023,46.8412071 C73.6386023,46.8412071 43.4257869,46.8412071 42.3230085,46.8412071 C42.1265909,46.7733929 43.044108,45.5990643 43.044108,45.5990643 C43.044108,45.5990643 47.5123551,43.8946429 47.1729347,43.6757571 C46.7919318,43.6683714 45.9612983,43.6425214 45.5180909,43.6425214 L45.3067983,43.6425214 C45.3078125,43.6425214 45.2344517,43.6425214 45.012679,43.6425214 L44.8013864,43.6425214 C41.1461932,43.6425214 44.3936761,43.6425214 40.738483,43.6425214 C39.0559176,43.6425214 33.5153182,43.6468857 33.5153182,43.6468857 C33.5153182,43.5585929 34.6170824,42.0975643 34.6170824,42.0089357 C35.25975,41.4889143 36.3195937,41.7648714 36.7800426,41.0578571 C36.9977585,40.7234857 37.3402216,40.4609571 37.4291335,39.9973357 C37.4453608,39.9332143 37.4798437,39.9721571 37.4291335,39.9308643 C37.1421136,39.7509214 36.3517102,39.8650643 35.9365625,39.8650643 L32.2377585,39.8650643 C29.1015,39.8650643 26.1795767,39.7814714 23.0436562,39.7814714 C21.5308011,39.7814714 15.2173778,39.75495 15.2173778,39.75495 C15.3431392,39.4645571 17.7528892,36.5968857 18.6105682,35.6233143 C18.7359915,35.3936857 19.1149659,35.2516786 19.3242301,35.0935571 C21.7326278,33.2729786 23.2874034,31.8193357 25.6944489,29.9974143 C26.3699091,29.4861214 28.0095398,28.4252643 28.6687727,27.9263929 C28.9551165,27.7095214 28.9808097,27.2986071 29.1227983,26.9417429 C29.523071,26.2683 18.7390341,27.1794286 19.2052301,26.5456 C19.720446,26.01685 27.2211648,22.8070857 27.8574091,22.4038929 C29.0119119,21.6727071 31.0372784,18.3075071 32.1840057,17.5716214 C32.6589915,17.2664571 36.8851818,13.4322643 37.1857244,13.0153071 C38.468017,11.2370286 40.024821,13.2916 40.3493665,13.0250429 C41.6228693,11.9796286 42.0620199,9.13612857 42.9991449,7.7691 C43.4795398,7.06745714 44.1833977,5.77797857 44.6965852,5.40365714 C45.4180227,4.8786 46.2699545,4.61775 47.0329744,4.14472857 C48.4457614,3.26817857 49.9690966,2.43997143 51.3808693,1.56006429 C52.1567358,1.07663571 53.2030568,0.797992857 53.8467386,0.168528571 C54.8761562,0.151071429 55.8798807,0.355521429 56.7666335,0.566014286 C58.0387841,0.867821429 59.3298665,0.806721429 60.5306847,1.09610714 C61.3376534,1.29082143 62.6814744,1.13001429 63.3207614,1.49392857 C63.9296222,1.83971429 64.3184006,2.67698571 64.9431506,3.01807143 C65.6530937,3.40582143 67.2007699,3.14262143 67.7984744,3.61463571 C68.2163267,4.09437143 68.2727841,4.94507143 68.5117983,5.6024 C68.9560199,6.82104286 68.8684602,6.96674286 68.8633892,6.96573571 C68.8508807,6.96271429 68.4255909,7.62608571 68.4374233,7.60527143 C67.7950937,7.62004286 67.1314659,7.63682857 66.7812273,7.3837 C65.6182727,7.42532857 65.3552557,7.73049286 64.9188097,8.49189286 C62.862679,8.35559286 62.7328608,6.86502143 61.1926222,6.27550714 C60.9495511,6.09657143 60.8467784,6.09690714 60.3650312,6.0536 L60.3650312,7.16179286 C60.8339318,7.63884286 61.1202756,8.50330714 61.6067557,8.93537143 C62.847804,10.0378571 64.9891278,9.98045 65.5395028,11.8164714 C66.3457955,14.5052071 63.1297528,16.5131143 64.5046761,18.9094429 C64.5060284,19.9686214 64.6202955,20.3123929 64.9188097,20.9042571 C65.7808835,20.8602786 65.8670909,20.7498286 66.3677699,20.4607786 L66.3677699,17.1362 C67.2173352,17.3960429 67.6899545,17.8663786 68.4374233,18.2443929 C68.5706222,18.6271071 68.4783295,18.4616 68.644321,18.6875357 L68.644321,20.6826857 C68.3860369,21.2946929 64.1351676,22.9376786 63.2626136,23.1206429 C62.9864119,22.8252143 62.7108864,22.5297857 62.4346847,22.2340214 C61.6317727,22.2326786 61.4978977,22.1141714 61.1926222,22.6775 C60.765304,23.8931214 63.115554,26.7148 63.4698494,28.2188 C63.8038608,29.6395429 63.1706591,30.8333429 64.0908807,31.5433786 C65.1852074,32.3887071 66.0202358,31.3016643 67.4022585,31.7652857 C67.6554716,31.8498857 68.1270767,32.2829571 68.4374233,32.4303357 L68.4374233,32.2087643 C69.1172784,31.9177 69.0401989,31.5876929 69.47225,31.1002357 C69.462446,30.41605 69.4005795,29.9641786 69.2653523,29.5489 C67.9391108,29.7238071 66.2450511,29.72515 64.9188097,29.5489 C65.019892,27.2314643 66.3282159,26.1897429 67.4022585,24.8938857 C67.4712244,24.8200286 67.5408665,24.7458357 67.6091562,24.6723143 L67.6091562,24.8938857 C68.5046989,25.7022857 68.2200455,27.0894571 68.8515568,28.2188 L68.8515568,28.6619429 L69.47225,28.6619429 C69.8207983,25.9762286 69.7460852,25.4541929 68.644321,23.7860286 C69.2748182,23.5537143 70.2193807,23.38955 70.7143125,23.1206429 C70.692,22.0839571 70.5773949,21.2993929 69.5638665,20.9542786 C69.794429,19.8289643 71.0547472,19.7551071 71.3353437,18.9094429 C72.1325085,16.5047214 70.270429,11.3696357 69.47225,10.4867071 C69.476983,10.4789857 70.3732017,10.3064286 70.3613693,10.3081071 C70.9452131,10.8378643 71.4320312,11.9648571 72.0162131,12.49495 C72.7812614,13.57125 73.2589517,15.00475 74.222446,15.8745857 Z M24.9542861,77.9773104 L23,77.9773104 L23,77 L28,77 L28,77.9773104 L26.0457139,77.9773104 L26.0457139,83 L24.9542861,83 L24.9542861,77.9773104 Z M30,77 L31.0602925,77 L31.0602925,79.4943705 L33.9397075,79.4943705 L33.9397075,77 L35,77 L35,83 L33.9397075,83 L33.9397075,80.4716809 L31.0602925,80.4716809 L31.0602925,83 L30,83 L30,77 Z M37,77 L40.9618233,77 L40.9618233,77.9430188 L37.938841,77.9430188 L37.938841,79.5029434 L40.6182332,79.5029434 L40.6182332,80.4456192 L37.938841,80.4456192 L37.938841,82.0573241 L41,82.0573241 L41,83 L37,83 L37,77 Z M46,77 L46.9343434,77 L50.0082645,81.1485969 L50.0082645,77 L51,77 L51,83 L50.1558442,83 L46.9920635,78.7313825 L46.9920635,83 L46,83 L46,77 Z M55.5315429,77 L56.4684571,77 L59,83 L57.9315429,83 L57.3478213,81.5617978 L54.6271855,81.5617978 L54.0355714,83 L53,83 L55.5315429,77 Z M56.9778569,80.6339803 L55.9833927,78.2512768 L54.9971499,80.6339803 L56.9778569,80.6339803 Z M61.0262647,78.026 L59.231,78.026 L59.231,77.076 L63.8241471,77.076 L63.8241471,78.026 L62.0288824,78.026 L62.0288824,82.9083333 L61.0262647,82.9083333 L61.0262647,78.026 Z M65.1435,80.434 L65.1435,77.076 L66.1380294,77.076 L66.1380294,80.3923333 C66.1380294,81.4753333 66.6799412,82.0583333 67.5693235,82.0583333 C68.4506176,82.0583333 68.9925294,81.5083333 68.9925294,80.434 L68.9925294,77.076 L69.9870588,77.076 L69.9870588,80.3836667 C69.9870588,82.125 69.0329706,83 67.5531471,83 C66.0814118,83 65.1435,82.125 65.1435,80.434 Z M73,77 L75.6262966,77 C76.367237,77 76.9478647,77.2232383 77.3267547,77.6001029 C77.6382864,77.9262159 77.8147649,78.3716637 77.8147649,78.8946105 L77.8147649,78.9117563 C77.8147649,79.8972967 77.2341371,80.4884837 76.4093358,80.7288678 L78,83 L76.7794692,83 L75.3316045,80.9085558 L74.0352957,80.9085558 L74.0352957,83 L73,83 L73,77 Z M75.5505187,79.9741098 C76.291459,79.9741098 76.7626297,79.5800994 76.7626297,78.9717666 L76.7626297,78.9546208 C76.7626297,78.3116534 76.3082985,77.9601646 75.5420989,77.9601646 L74.0352957,77.9601646 L74.0352957,79.9741098 L75.5505187,79.9741098 Z M80,77 L83.9618262,77 L83.9618262,77.9430188 L80.9390747,77.9430188 L80.9390747,79.5029434 L83.6182623,79.5029434 L83.6182623,80.4456192 L80.9390747,80.4456192 L80.9390747,82.0573241 L84,82.0573241 L84,83 L80,83 L80,77 Z M90.0309565,82.9131579 L90.0309565,77.3877895 L91.1005217,77.3877895 L91.1005217,82.9131579 L90.0309565,82.9131579 Z M93.0483478,82.1078947 L93.6914783,81.4134737 C94.274087,81.8713684 94.8563478,82.1315789 95.6128696,82.1315789 C96.2737391,82.1315789 96.6907826,81.8552632 96.6907826,81.4371579 L96.6907826,81.4213684 C96.6907826,81.0266316 96.4476522,80.8134737 95.3172174,80.5766316 C94.021913,80.2927368 93.2914783,79.9453684 93.2914783,78.9272632 L93.2914783,78.9114737 C93.2914783,77.9644211 94.1610435,77.3088421 95.3693913,77.3088421 C96.2563478,77.3088421 96.9603478,77.5538947 97.5777391,78.0038947 L97.0038261,78.7377895 C96.456,78.3667368 95.9085217,78.1693684 95.352,78.1693684 C94.725913,78.1693684 94.3610435,78.4614737 94.3610435,78.8243158 L94.3610435,78.8404211 C94.3610435,79.2667368 94.6389565,79.4558947 95.8041739,79.7085263 C97.0907826,79.9927368 97.76,80.4111579 97.76,81.3266316 L97.76,81.3424211 C97.76,82.3763158 96.8646957,82.9921053 95.5867826,82.9921053 C94.6563478,82.9921053 93.7784348,82.7 93.0483478,82.1078947 Z M99,77 L100.001956,77 L100.001956,82.0398354 L103,82.0398354 L103,83 L99,83 L99,77 Z M106.531543,77 L107.468457,77 L110,83 L108.931543,83 L108.347821,81.5617978 L105.627186,81.5617978 L105.035571,83 L104,83 L106.531543,77 Z M107.977857,80.6339803 L106.983393,78.2512768 L105.99715,80.6339803 L107.977857,80.6339803 Z M112,77 L112.93461,77 L116.00833,81.1485969 L116.00833,77 L117,77 L117,83 L116.155572,83 L112.991998,78.7313825 L112.991998,83 L112,83 L112,77 Z M119,77 L121.061501,77 C122.799381,77 124,78.2945076 124,79.9830257 L124,80.0001715 C124,81.6883466 122.799381,83 121.061501,83 L119,83 L119,77 Z M121.061501,82.0398354 C122.222932,82.0398354 122.981417,81.1914614 122.981417,80.0169743 L122.981417,80.0001715 C122.981417,78.8260273 122.222932,77.9601646 121.061501,77.9601646 L119.971494,77.9601646 L119.971494,82.0398354 L121.061501,82.0398354 Z M25,58.1557804 C25,60.3670008 24.5843787,62.2849066 23.7527915,63.9091535 C22.9212043,65.5337447 21.8390725,66.8657098 20.5063963,67.9036717 C19.1613134,68.9419779 17.6511538,69.7176092 15.9759174,70.2305655 C14.300681,70.7435218 12.5703041,71 10.7851314,71 L0,71 L0,69.6990188 C0.35462215,69.6990188 0.816078961,69.665625 1.38505969,69.5984932 C1.95335116,69.5313613 2.32934024,69.4549343 2.51302694,69.3695563 C2.87971106,69.2108497 3.14576383,68.9753717 3.31049599,68.663811 C3.4759174,68.3525946 3.55828348,67.9770004 3.55828348,67.5373727 L3.55828348,48.7745323 C3.55828348,48.3593475 3.48797938,47.9868517 3.34737118,47.6570449 C3.20676298,47.3272381 2.92864823,47.0645631 2.51302694,46.86902 C2.13359157,46.6858705 1.72417358,46.5516068 1.2840837,46.4658846 C0.843649196,46.3805066 0.464558463,46.325424 0.146811502,46.3009812 L0.146811502,45 L11.5188443,45 C13.0837997,45 14.6246312,45.2416747 16.1409942,45.7236471 C17.6570125,46.2066523 18.9776268,46.8569707 20.102837,47.675291 C21.6312619,48.762483 22.8295332,50.1853343 23.6979956,51.9445335 C24.5661134,53.7033884 25,55.7741483 25,58.1557804 Z M20.5063963,58.1464852 C20.5063963,56.4014009 20.2741171,54.8236299 19.8095586,53.4138607 C19.3446555,52.0044357 18.6660831,50.7747176 17.7734967,49.7250506 C16.9298475,48.7239252 15.8932067,47.9369331 14.6646081,47.363386 C13.4353202,46.7894946 12.0692151,46.502721 10.5649141,46.502721 C10.0634805,46.502721 9.49794602,46.5120162 8.86831077,46.529918 C8.2383309,46.5485084 7.77067078,46.5636561 7.46533043,46.5760497 L7.46533043,66.5500179 C7.46533043,67.6606199 7.78928069,68.4300544 8.43718122,68.8569442 C9.08542637,69.2841783 10.0817457,69.4976232 11.4271732,69.4976232 C12.9800667,69.4976232 14.3372115,69.222899 15.4989523,68.674139 C16.6606931,68.1250348 17.6022166,67.3617971 18.3235229,66.3854587 C19.0817044,65.3602346 19.6351769,64.1732055 19.9835957,62.8243714 C20.3320146,61.4755373 20.5063963,59.9167009 20.5063963,58.1464852 Z M43,62.2996185 C43,63.5617486 42.8058355,64.8019941 42.4175064,66.0217227 C42.028846,67.2407674 41.4758415,68.2751602 40.7581617,69.1245591 C39.9460502,70.0953495 39.0043854,70.8168598 37.9334984,71.2904579 C36.8626113,71.763372 35.6621709,72 34.3321769,72 C33.226168,72 32.1725106,71.7845727 31.1721987,71.3537182 C30.1722182,70.9235476 29.2832362,70.295731 28.506578,69.4706105 C27.7418481,68.6578 27.132516,67.6654668 26.6795759,66.4946368 C26.2266357,65.3241487 26,64.0107264 26,62.5547117 C26,59.7521057 26.7915684,57.4586603 28.3743739,55.6754013 C29.9571793,53.8914585 32.0316916,53 34.5972479,53 C37.0332508,53 39.0428207,53.8459794 40.6256261,55.5386221 C42.2084316,57.2312648 43,59.4847023 43,62.2996185 Z M39.3496404,62.3362069 C39.3496404,61.4259413 39.2611729,60.4647254 39.0845694,59.4515334 C38.9079658,58.4386833 38.6428947,57.5800518 38.2896876,56.8763228 C37.912624,56.1240371 37.4176038,55.5204989 36.8056211,55.065708 C36.1929756,54.6105752 35.4451439,54.3828378 34.5617947,54.3828378 C33.654589,54.3828378 32.8805816,54.6133108 32.2387783,55.0745987 C31.5966437,55.5358865 31.0757791,56.1664387 30.6751905,56.967281 C30.2984583,57.7075984 30.0333873,58.5505003 29.8799774,59.4970125 C29.7268989,60.4431826 29.6503596,61.3596033 29.6503596,62.2452487 C29.6503596,63.4099237 29.7418091,64.486718 29.9243768,65.4756317 C30.1066131,66.4645454 30.3981913,67.3474552 30.7991112,68.1233353 C31.1993685,68.9002412 31.7026721,69.5099345 32.3093535,69.9527572 C32.9160348,70.3955799 33.6668486,70.6168202 34.5617947,70.6168202 C36.033933,70.6168202 37.2002456,69.8829998 38.0597384,68.414675 C38.9195626,66.9470341 39.3496404,64.9203081 39.3496404,62.3362069 Z M74,71 L65.2624175,71 L65.2624175,69.827466 C65.5411638,69.8037615 65.8236722,69.7800571 66.1089168,69.7563527 C66.3934773,69.7326483 66.645888,69.6852395 66.8644388,69.6141262 C67.2037225,69.5076233 67.4557912,69.3209927 67.6192767,69.0542345 C67.7837883,68.7878102 67.865189,68.4412583 67.865189,68.0149126 L67.865189,58.9701747 C67.865189,57.7385466 67.5772082,56.7876989 67.0009047,56.1182995 C66.4242591,55.449234 65.7046493,55.1143673 64.8437852,55.1143673 C64.2486705,55.1143673 63.6908361,55.2031754 63.1689137,55.3811255 C62.6466493,55.5584078 62.1678214,55.8074712 61.73072,56.12698 C61.3787815,56.3880625 61.0849864,56.6695107 60.8476246,56.9713247 C60.6112889,57.2734726 60.4320704,57.5252068 60.3113374,57.7268613 L60.3113374,67.8372964 C60.3113374,68.2519568 60.3841876,68.5921653 60.5298881,68.8589235 C60.6752466,69.1253478 60.9238951,69.3296732 61.2758335,69.4718997 C61.5545798,69.5787365 61.8063064,69.6585303 62.0313555,69.7119487 C62.2557206,69.7650332 62.5498577,69.8037615 62.9137669,69.827466 L62.9137669,71 L54.358823,71 L54.358823,69.827466 C54.6375692,69.8037615 54.907765,69.7800571 55.1683841,69.7563527 C55.4293453,69.7326483 55.6694433,69.6852395 55.887652,69.6141262 C56.2272777,69.5076233 56.4790044,69.3209927 56.6431739,69.0542345 C56.8070015,68.7878102 56.8890863,68.4412583 56.8890863,68.0149126 L56.8890863,58.9701747 C56.8890863,57.7385466 56.5997374,56.7876989 56.0220658,56.1182995 C55.4440522,55.449234 54.7234162,55.1143673 53.859816,55.1143673 C53.2636753,55.1143673 52.7041307,55.2065141 52.1811823,55.389806 C51.6582339,55.5734318 51.1776959,55.825166 50.7395684,56.1450087 C50.3869459,56.4054235 50.0890465,56.6988908 49.8458704,57.0247431 C49.6023522,57.3505954 49.4200556,57.5963201 49.2982965,57.7619171 L49.2982965,67.8015729 C49.2982965,68.204548 49.3831175,68.5420855 49.5531013,68.8141856 C49.7227432,69.0872872 49.9778901,69.2942835 50.3175158,69.43651 C50.5723207,69.5550321 50.8332818,69.6438402 51.1003994,69.7032682 C51.3671749,69.7623623 51.6647322,69.8037615 51.9923873,69.827466 L51.9923873,71 L43.2729319,71 L43.2729319,69.827466 C43.5520201,69.8037615 43.8400009,69.7800571 44.1375582,69.7563527 C44.4347735,69.7326483 44.6926565,69.6855733 44.9112072,69.6144601 C45.250833,69.508291 45.5029017,69.3216604 45.6667292,69.05557 C45.8305567,68.7891457 45.9122995,68.4429276 45.9122995,68.0172497 L45.9122995,57.1372556 C45.9122995,56.7589865 45.8244004,56.4187781 45.6486021,56.1169641 C45.4724619,55.8154839 45.2265496,55.5577401 44.9112072,55.3450681 C44.6806858,55.2031754 44.3954412,55.0876581 44.0558154,54.9991839 C43.7158477,54.9100419 43.3639092,54.8539526 43,54.8302482 L43,53.5091442 L49.2617004,53.5151538 L49.2617004,56.0208109 L49.3892738,56.0208109 C49.6926455,55.7246726 50.062711,55.3754498 50.4994704,54.9724747 C50.9365719,54.5694996 51.3428915,54.2439812 51.7191134,53.9949178 C52.1439021,53.7104648 52.675059,53.4737545 53.3122421,53.2841192 C53.9494252,53.0948177 54.6375692,53 55.3780423,53 C56.5429621,53 57.5443964,53.3048188 58.3813191,53.9151241 C59.2192679,54.5254294 59.8195128,55.2626034 60.183764,56.12698 C60.6191553,55.7126535 61.0039277,55.3484067 61.3373971,55.0345736 C61.6708665,54.7207404 62.1096781,54.3862077 62.6551998,54.0306414 C63.1155586,53.722484 63.6573181,53.4737545 64.2811624,53.2841192 C64.9060328,53.0948177 65.5993071,53 66.3620115,53 C67.8764757,53 69.0762815,53.4854398 69.9607449,54.4573209 C70.8452084,55.4285343 71.2874401,56.9209111 71.2874401,58.9351189 L71.2874401,67.8372964 C71.2874401,68.2519568 71.3602904,68.5921653 71.5056488,68.8589235 C71.6513493,69.1253478 71.8999978,69.3296732 72.2526203,69.4718997 C72.5310245,69.5787365 72.8077186,69.6585303 73.0803085,69.7119487 C73.3535824,69.7650332 73.6600322,69.8037615 74,69.827466 L74,71 Z M104,71 L95.2368264,71 L95.2368264,69.827466 C95.5155863,69.8037615 95.821334,69.7800571 96.1547528,69.7563527 C96.4885131,69.7326483 96.7641985,69.6852395 96.9821505,69.6141262 C97.3210351,69.5076233 97.5734905,69.3209927 97.7367837,69.0542345 C97.9004185,68.7878102 97.9824067,68.4412583 97.9824067,68.0149126 L97.9824067,59.0062321 C97.9824067,57.7619171 97.6814416,56.8027229 97.0795115,56.12698 C96.4786062,55.4522388 95.7465198,55.1143673 94.8839354,55.1143673 C94.2399863,55.1143673 93.650696,55.2121898 93.1164062,55.4075008 C92.5810915,55.6031458 92.1076095,55.8428609 91.6945939,56.12698 C91.2935349,56.3997477 90.9744641,56.6932151 90.7377231,57.0067144 C90.5009822,57.3212153 90.3274404,57.5729495 90.2184644,57.7619171 L90.2184644,67.8372964 C90.2184644,68.2402715 90.3035272,68.5717995 90.4729695,68.8322143 C90.6430951,69.0929629 90.8972585,69.2942835 91.2368264,69.43651 C91.4909898,69.5550321 91.7673584,69.6438402 92.0642241,69.7032682 C92.3610898,69.7623623 92.6664959,69.8037615 92.9821505,69.827466 L92.9821505,71 L84.2001879,71 L84.2001879,69.827466 C84.4792894,69.8037615 84.7665898,69.7800571 85.0644803,69.7563527 C85.361346,69.7326483 85.6189256,69.6855733 85.8368776,69.6144601 C86.1757622,69.508291 86.4275344,69.3216604 86.5915108,69.05557 C86.7551456,68.7891457 86.8364506,68.4429276 86.8364506,68.0172497 L86.8364506,57.2083689 C86.8364506,56.8060615 86.7489965,56.436139 86.5730635,56.0992692 C86.397472,55.7620655 86.151849,55.4872946 85.8368776,55.2739548 C85.6062858,55.1320622 85.3340166,55.0282301 85.0183619,54.9634603 C84.7033906,54.8986905 84.3638227,54.8539526 84,54.8302482 L84,53.5091442 L90.2184644,53.5151538 L90.2184644,55.9850874 L90.3093347,55.9850874 C90.6003929,55.7006343 90.9638739,55.3604259 91.4001196,54.9634603 C91.8367068,54.5668287 92.2490392,54.2439812 92.6367751,53.9949178 C93.0849774,53.7104648 93.6189256,53.4737545 94.2365702,53.2841192 C94.8552396,53.0948177 95.5517978,53 96.3276112,53 C98.0483389,53 99.3249637,53.5241681 100.154753,54.5725044 C100.984883,55.6208406 101.400632,57.0160626 101.400632,58.756835 L101.400632,67.8726861 C101.400632,68.2873465 101.473397,68.6218793 101.618926,68.8766183 C101.764113,69.1316912 102.012469,69.3296732 102.363994,69.4718997 C102.655052,69.5907556 102.906482,69.6735542 103.118627,69.7206292 C103.330771,69.7683719 103.624562,69.8037615 104,69.827466 L104,71 Z M80.939356,48.3206694 C80.939356,49.0098523 80.7120264,49.6111414 80.2580498,50.1245367 C79.8037319,50.6386133 79.2432586,50.8954813 78.5779952,50.8954813 C77.9598362,50.8954813 77.423939,50.6505369 76.9699625,50.1609888 C76.5159859,49.6714406 76.2886563,49.1123951 76.2886563,48.4838521 C76.2886563,47.8191976 76.5159859,47.2390303 76.9699625,46.74335 C77.423939,46.2476698 77.9598362,46 78.5779952,46 C79.2678348,46 79.8337695,46.2326801 80.2757993,46.6980404 C80.7178291,47.1634007 80.939356,47.7043906 80.939356,48.3206694 Z M83,71 L74.8144271,71 L74.8144271,69.8035539 C74.8410513,69.7793661 75.128456,69.7551782 75.4257595,69.7309904 C75.7223802,69.7068026 75.9797474,69.6587676 76.197861,69.5862041 C76.536466,69.4778698 76.7880305,69.2874332 76.9518717,69.0159163 C77.1153715,68.7440587 77.1972921,68.39078 77.1972921,67.956421 L77.1972921,56.9271095 C77.1972921,56.5407855 77.1092274,56.1878475 76.9330982,55.8676142 C76.7579929,55.5477216 76.5125725,55.2792707 76.197861,55.0619209 C75.967118,54.9167939 75.634657,54.7931293 75.1984299,54.6905865 C74.7625441,54.5883844 74.3631812,54.5246784 74,54.5004906 L74,53.1524447 L80.5758334,53.1585768 L80.5758334,67.7363458 C80.5758334,68.1594626 80.6570713,68.5103565 80.8192058,68.7880056 C80.982023,69.066336 81.2373421,69.2717622 81.5858459,69.404625 C81.8507225,69.5132999 82.1091137,69.6011937 82.3620435,69.6672844 C82.6146319,69.7340565 82.8972579,69.7793661 83,69.8035539 L83,71 Z M110.659509,48.3206694 C110.659509,49.0098523 110.441347,49.6111414 110.005678,50.1245367 C109.570009,50.6386133 109.031811,50.8954813 108.393376,50.8954813 C107.800146,50.8954813 107.28586,50.6505369 106.850191,50.1609888 C106.414522,49.6714406 106.19636,49.1123951 106.19636,48.4838521 C106.19636,47.8191976 106.414522,47.2390303 106.850191,46.74335 C107.28586,46.2476698 107.800146,46 108.393376,46 C109.055396,46 109.598835,46.2326801 110.023039,46.6980404 C110.447243,47.1634007 110.659509,47.7043906 110.659509,48.3206694 Z M113,71 L104.822202,71 L104.822202,69.8035539 C104.807461,69.7793661 105.083276,69.7551782 105.36859,69.7309904 C105.653248,69.7068026 105.900237,69.6587676 106.109227,69.5862041 C106.434504,69.4778698 106.675596,69.2874332 106.83283,69.0159163 C106.989736,68.7440587 107.068353,68.39078 107.068353,67.956421 L107.068353,56.9271095 C107.068353,56.5407855 106.98384,56.1878475 106.815141,55.8676142 C106.64677,55.5477216 106.411247,55.2792707 106.109227,55.0619209 C105.888116,54.9167939 105.568735,54.7931293 105.150428,54.6905865 C104.731793,54.5883844 104.348535,54.5246784 104,54.5004906 L104,53.1524447 L110.310646,53.1585768 L110.310646,67.7363458 C110.310646,68.1594626 110.388935,68.5103565 110.544204,68.7880056 C110.700455,69.066336 110.945478,69.2717622 111.279927,69.404625 C111.534122,69.5132999 111.78242,69.6011937 112.024823,69.6672844 C112.267225,69.7340565 112.538453,69.7793661 113,69.8035539 L113,71 Z M122.429693,72 C119.791962,72 117.727696,71.1356615 116.236548,69.4059547 C114.7454,67.6762479 114,65.3564705 114,62.4452494 C114,61.1786056 114.20007,59.9943452 114.600905,58.8917815 C115.001393,57.7895612 115.583194,56.7879171 116.347699,55.8865061 C117.075037,55.0218244 117.986815,54.3243121 119.083728,53.7946559 C120.180988,53.2646565 121.376198,53 122.670055,53 C124.456793,53 125.91147,53.4232444 127.032697,54.2697332 C128.15427,55.1165652 128.715231,56.2702752 128.715231,57.7318928 C128.715231,58.3404997 128.567263,58.879424 128.271673,59.3486658 C127.975736,59.8175643 127.488759,60.0520135 126.811091,60.0520135 C126.083753,60.0520135 125.520013,59.8697404 125.119525,59.5055374 C124.719385,59.1409911 124.51862,58.7349099 124.51862,58.2855775 C124.51862,57.7391014 124.592604,57.1771784 124.740573,56.6008383 C124.888194,56.0241549 124.974336,55.6026269 124.999692,55.334881 C124.778434,54.9590071 124.449499,54.7070514 124.013235,54.5793572 C123.576276,54.4523496 123.106319,54.3881592 122.601976,54.3881592 C122.012533,54.3881592 121.450183,54.5134505 120.914926,54.7626601 C120.380363,55.0125562 119.860736,55.4725299 119.357435,56.1422377 C118.902067,56.7511879 118.53284,57.5736482 118.250797,58.6085888 C117.968059,59.6438727 117.82669,60.8803093 117.82669,62.317212 C117.82669,64.5827537 118.334159,66.4312298 119.349793,67.8619537 C120.364733,69.2930209 121.697144,70.0083829 123.345639,70.0083829 C124.539113,70.0083829 125.53877,69.7207277 126.344955,69.1454174 C126.906611,68.7444852 127.254302,68.1104768 127.758993,67.4308143 C128.157397,66.9210674 129.242847,67.4788712 128.95073,68.2162021 C128.473132,69.1172698 127.821862,69.8467056 126.55232,70.7391917 C125.26541,71.6443786 123.846857,72 122.429693,72 Z M146,71.2138452 C145.424653,71.4213791 144.919326,71.5887119 144.485401,71.7168743 C144.051131,71.8446932 143.557878,71.9089462 143.007365,71.9089462 C142.052937,71.9089462 141.290981,71.686294 140.721497,71.2413332 C140.153049,70.7963723 139.788455,70.1473136 139.629441,69.2934698 L139.519063,69.2934698 C138.723303,70.1713655 137.86994,70.842071 136.958283,71.3055862 C136.046972,71.7687578 134.948017,72 133.663143,72 C132.304454,72 131.187562,71.5856195 130.313158,70.7565148 C129.437719,69.9277538 129,68.8430114 129,67.501944 C129,66.8064994 129.097616,66.1852723 129.293538,65.6362009 C129.489804,65.0878167 129.783342,64.5940648 130.17484,64.1549451 C130.480795,63.7893557 130.885056,63.4632801 131.386933,63.1767184 C131.88812,62.8905004 132.359643,62.662007 132.800467,62.4908946 C133.350634,62.2837044 134.467526,61.8999042 136.150451,61.3388068 C137.833377,60.7780531 138.96855,60.339277 139.55597,60.022135 L139.55597,58.2117113 C139.55597,58.0533121 139.522512,57.7485397 139.454905,57.2973941 C139.387643,56.846592 139.244151,56.4198419 139.023739,56.0171438 C138.778837,55.5659982 138.433215,55.1732644 137.986527,54.837568 C137.53984,54.5025589 136.906544,54.3345389 136.086639,54.3345389 C135.523364,54.3345389 134.999757,54.4293723 134.516851,54.6183518 C134.033256,54.8073313 133.693497,55.0052444 133.497575,55.2124347 C133.497575,55.4567336 133.556214,55.8161383 133.672111,56.2916795 C133.788698,56.766877 133.846647,57.2059967 133.846647,57.6083513 C133.846647,58.0351014 133.65383,58.4250864 133.26854,58.7786498 C132.88325,59.1322133 132.34757,59.3088233 131.661844,59.3088233 C131.049934,59.3088233 130.600142,59.0926994 130.313158,58.6597645 C130.025484,58.2268297 129.881303,57.7423549 129.881303,57.2059967 C129.881303,56.645243 130.079984,56.1085412 130.478036,55.5965785 C130.875398,55.0846158 131.392797,54.6272854 132.028853,54.2252744 C132.580055,53.8837369 133.246809,53.5940829 134.030496,53.3566559 C134.813148,53.1185417 135.578553,53 136.324987,53 C137.353231,53 138.249711,53.0700942 139.014426,53.2102827 C139.779142,53.3504711 140.473836,53.6521511 141.098164,54.1153227 C141.722147,54.5664683 142.196429,55.1791056 142.52101,55.9532344 C142.845247,56.7277067 143.007365,57.7244878 143.007365,58.9428902 C143.007365,60.6866557 142.989429,62.2321645 142.952176,63.579073 C142.915958,64.9263251 142.896987,66.3986473 142.896987,67.9953524 C142.896987,68.4708935 142.979771,68.8491962 143.144993,69.1292294 C143.310561,69.4096063 143.564086,69.6477205 143.906949,69.8425412 C144.090798,69.9518057 144.381232,70.0133099 144.779284,70.0249923 C145.176646,70.0377055 145.583666,70.0435467 146,70.0435467 L146,71.2138452 Z M139.592533,61.5583666 C138.552217,61.8634826 137.640905,62.1634447 136.857218,62.4561911 C136.073876,62.7496248 135.345379,63.116245 134.672416,63.5557083 C134.06085,63.9711196 133.57691,64.4634971 133.222664,65.0314664 C132.867729,65.5994358 132.689743,66.274608 132.689743,67.0566396 C132.689743,68.0706006 132.956721,68.815867 133.488952,69.292439 C134.021183,69.769011 134.697596,70.0071252 135.517155,70.0071252 C136.386385,70.0071252 137.151101,69.7961553 137.811991,69.3745592 C138.472882,68.9529631 139.029948,68.4554316 139.482845,67.8809339 L139.592533,61.5583666 Z" id="path-1"></path>
    </defs>
    <g id="Symbols" stroke="none" stroke-width="1" fill="none" fill-rule="evenodd">
        <g id="logos/dominica-logo">
            <mask id="mask-2" fill="white">
                <use xlink:href="#path-1"></use>
            </mask>
            <use id="dominica-logo" fill="#496E36" xlink:href="#path-1"></use>
        </g>
    </g>
</svg>