<svg xmlns="http://www.w3.org/2000/svg" width="28" height="28" viewBox="0 0 28 28">
    <defs>
        <linearGradient id="a" x1="0%" y1="0%" y2="100%">
            <stop offset="0%" stop-color="#2DAB9D"/>
            <stop offset="100%" stop-color="#0092B8"/>
        </linearGradient>
    </defs>
    <g fill="none" fill-rule="evenodd">
        <circle cx="14" cy="14" r="14" fill="url(#a)"/>
        <path fill="#FFF" fill-rule="nonzero" d="M23.989 11.985l-.037 4.22c-.202 1.313-1.26 2.11-2.867 2.11h-4.598a.238.238 0 0 1-.242-.235c0-1.163-.976-2.11-2.177-2.11s-2.178.947-2.178 2.11c0 .13-.108.235-.242.235H7.05c-1.608 0-2.665-.797-2.866-2.11l-.038-4.22c0-1.256.784-2.197 2.33-2.796C7.876 8.647 10.33 8 14.068 8c3.738 0 6.191.647 7.591 1.189 1.546.599 2.33 1.54 2.33 2.796zM6.05 14.535l.707.708L11 11l-.707-.707-4.243 4.243zm3 0l.707.708 2.122-2.122-.707-.707-2.122 2.122z"/>
        <path fill="#FFF" fill-rule="nonzero" stroke="#FFF" d="M12.5 20.5h4v1h-4z"/>
        <path stroke="#FFF" stroke-width="2" d="M14.518 20.654v3.035c.866 1.006 1.731 1.508 2.597 1.508.866 0 1.732-.502 2.598-1.508v-4.12"/>
        <path fill="#FFF" fill-rule="nonzero" d="M19 3h2v5l-2-1z"/>
    </g>
</svg>
