<svg xmlns="http://www.w3.org/2000/svg" width="28" height="28" viewBox="0 0 28 28">
    <defs>
        <linearGradient id="a" x1="0%" y1="0%" y2="100%">
            <stop offset="0%" stop-color="#2DAB9D"/>
            <stop offset="100%" stop-color="#0092B8"/>
        </linearGradient>
    </defs>
    <g fill="none" fill-rule="evenodd">
        <circle cx="14" cy="14" r="14" fill="url(#a)"/>
        <path fill="#FFF" fill-rule="nonzero" d="M4.199 15.207c-.452-1.141.255-1.81.777-2.359-.921-1.615-.035-3.731 2.398-3.532-.638-2.58 1.907-4.103 3.947-2.399.51-1.86 3.932-2.94 5.343-.066 2.192-1.638 4.641-.116 3.893 2.465 2.22-.207 3.301 1.647 2.398 3.532.922.82 1.225 1.807.801 2.415-.418.602-9.187 7.653-9.845 7.653-1.045 0-9.504-7.183-9.712-7.709zM8.5 11.034c.195 2.821 1.312 5.434 3.342 7.826a.5.5 0 1 0 .763-.646c-1.896-2.235-2.928-4.647-3.107-7.248a.5.5 0 1 0-.998.068zm10.222 0a.5.5 0 1 0-.998-.068c-.18 2.601-1.211 5.013-3.106 7.248a.5.5 0 0 0 .762.646c2.03-2.392 3.147-5.005 3.342-7.826z"/>
    </g>
</svg>
