<svg xmlns="http://www.w3.org/2000/svg" width="28" height="28" viewBox="0 0 28 28">
    <defs>
        <linearGradient id="a" x1="0%" y1="0%" y2="100%">
            <stop offset="0%" stop-color="#2DAB9D"/>
            <stop offset="100%" stop-color="#0092B8"/>
        </linearGradient>
    </defs>
    <g fill="none" fill-rule="evenodd">
        <circle cx="14" cy="14" r="14" fill="url(#a)"/>
        <path fill="#FFF" fill-rule="nonzero" d="M6.193 11.577l5.843 2.371-3.03 3.497-2.25-.443c-.087 0-.216 0-.26.08l-.216.202c-.13.12-.13.361.087.442l2.12.964 1.039 1.97c.087.16.346.2.476.08l.217-.2c.086-.081.086-.162.086-.242l-.476-2.13 3.722-2.773 2.554 5.425c.086.201.346.242.52.08l.778-.723c.087-.08.087-.16.087-.24l-1.039-7.195 3.42-3.858c.042-.04.042-.12.086-.16L20 8.321C20 8.16 19.87 8 19.654 8l-.433.04c-.043 0-.13.04-.173.08l-4.155 3.176-7.747-.965c-.087 0-.174 0-.26.08l-.78.724c-.172.12-.129.361.087.442z"/>
    </g>
</svg>
